<svg width="22" height="22" viewBox="0 0 22 22" fill="none" xmlns="http://www.w3.org/2000/svg">
<path d="M18.9682 0C19.5847 0 20.1063 0.237102 20.5805 0.663887C21.0073 1.13809 21.2444 1.65972 21.2444 2.27618V18.9682C21.2444 19.6321 21.0073 20.1537 20.5805 20.5805C20.1063 21.0547 19.5847 21.2444 18.9682 21.2444H2.27618C1.6123 21.2444 1.09067 21.0547 0.663887 20.5805C0.189682 20.1537 0 19.6321 0 18.9682V2.27618C0 1.65972 0.189682 1.13809 0.663887 0.663887C1.09067 0.237102 1.6123 0 2.27618 0H18.9682ZM16.6446 7.53986C17.2136 7.11307 17.7353 6.59145 18.2095 5.92756C17.593 6.21208 16.9765 6.35434 16.4075 6.40177C17.0714 6.0224 17.4982 5.45336 17.7827 4.69463C17.1188 5.07399 16.4549 5.35851 15.791 5.45336C15.1746 4.78947 14.4158 4.45753 13.5623 4.45753C12.8984 4.45753 12.3293 4.64721 11.8077 4.97915C11.2861 5.35851 10.9067 5.83272 10.6696 6.40177C10.3851 6.97081 10.3377 7.6347 10.5273 8.29858C9.19957 8.25116 8.01406 7.91922 6.92339 7.35017C5.7853 6.78113 4.83689 5.97498 4.07816 5.02657C3.79364 5.50078 3.65138 6.0224 3.65138 6.59145C3.65138 7.16049 3.74622 7.6347 4.03074 8.1089C4.26784 8.58311 4.59979 8.91505 5.07399 9.19957C4.55237 9.19957 4.07816 9.05731 3.65138 8.77279V8.82021C3.65138 9.57894 3.88848 10.2428 4.36268 10.8119C4.83689 11.3809 5.40594 11.7603 6.16466 11.9025C5.69046 11.9974 5.21625 12.0448 4.74205 11.95C4.93173 12.6138 5.26367 13.1355 5.83272 13.5148C6.35434 13.8942 6.97081 14.0839 7.6347 14.0839C6.49661 14.9849 5.21625 15.4117 3.79364 15.4117H3.03491C4.45753 16.3601 6.06982 16.7869 7.82438 16.7869C9.62636 16.7869 11.2387 16.3601 12.6613 15.4117C13.8942 14.6055 14.89 13.4674 15.6488 12.0448C16.3126 10.717 16.6446 9.34183 16.6446 7.91922V7.53986Z" fill="#4F4F4F"/>
</svg>
