<svg width="22" height="22" viewBox="0 0 22 22" fill="none" xmlns="http://www.w3.org/2000/svg">
<path d="M21.2444 2.27618C21.2444 1.65972 21.0073 1.13809 20.5805 0.663887C20.1063 0.237102 19.5847 0 18.9682 0H2.27618C1.6123 0 1.09067 0.237102 0.663887 0.663887C0.189682 1.13809 0 1.65972 0 2.27618V18.9682C0 19.6321 0.189682 20.1537 0.663887 20.5805C1.09067 21.0547 1.6123 21.2444 2.27618 21.2444H11.618V12.851H8.72537V9.62636H11.618V7.25533C11.618 5.92756 11.95 4.93173 12.7087 4.173C13.4674 3.41427 14.4632 3.03491 15.7436 3.03491C16.692 3.03491 17.5456 3.08233 18.2095 3.17717V6.0224H16.5023C15.8859 6.0224 15.4591 6.16466 15.222 6.44919C15.0323 6.73371 14.9375 7.11307 14.9375 7.58728V9.62636H18.2095L17.7827 12.851H14.9375V21.2444H18.9682C19.5847 21.2444 20.1063 21.0547 20.5805 20.5805C21.0073 20.1537 21.2444 19.6321 21.2444 18.9682V2.27618Z" fill="#4F4F4F"/>
</svg>
