<svg width="22" height="22" viewBox="0 0 22 22" fill="none" xmlns="http://www.w3.org/2000/svg">
<path d="M19.7269 0C20.1063 0 20.4856 0.189682 20.7702 0.474205C21.0547 0.758728 21.2444 1.13809 21.2444 1.51746V19.7269C21.2444 20.1537 21.0547 20.5331 20.7702 20.8176C20.4856 21.1021 20.1063 21.2444 19.7269 21.2444H1.51746C1.09067 21.2444 0.711304 21.1021 0.426781 20.8176C0.142258 20.5331 0 20.1537 0 19.7269V1.51746C0 1.13809 0.142258 0.758728 0.426781 0.474205C0.711304 0.189682 1.09067 0 1.51746 0H19.7269ZM6.40176 18.2095H6.44919V8.06148H3.27201V18.2095H6.40176ZM4.83689 6.68629C5.3111 6.68629 5.73788 6.54403 6.11724 6.16466C6.4966 5.7853 6.68629 5.35851 6.68629 4.88431C6.68629 4.4101 6.4966 3.98332 6.11724 3.60396C5.73788 3.22459 5.3111 3.03491 4.83689 3.03491C4.31527 3.03491 3.88848 3.22459 3.55653 3.60396C3.17717 3.98332 3.03491 4.4101 3.03491 4.88431C3.03491 5.35851 3.17717 5.7853 3.55653 6.16466C3.88848 6.54403 4.31527 6.68629 4.83689 6.68629ZM18.2095 18.2095V12.6613C18.2095 11.0964 17.9724 9.9583 17.5456 9.19957C16.9291 8.29858 15.8859 7.82438 14.4632 7.82438C13.7045 7.82438 13.0881 8.01406 12.519 8.34601C12.0448 8.63053 11.6654 9.00989 11.4758 9.43668H11.4283V8.06148H8.39342V18.2095H11.5232V13.1829C11.5232 12.4242 11.618 11.8077 11.8551 11.3809C12.1396 10.8593 12.6613 10.5748 13.42 10.5748C14.1313 10.5748 14.6055 10.9067 14.8426 11.4758C14.9849 11.8551 15.0797 12.4716 15.0797 13.2777V18.2095H18.2095Z" fill="#4F4F4F"/>
</svg>
